<?xml version="1.0" encoding="utf-8"?>
<!-- Generator: Adobe Illustrator 16.1.0, SVG Export Plug-In . SVG Version: 6.00 Build 0)  -->
<!DOCTYPE svg PUBLIC "-//W3C//DTD SVG 1.1//EN" "http://www.w3.org/Graphics/SVG/1.1/DTD/svg11.dtd">
<svg version="1.1" id="Layer_1" xmlns="http://www.w3.org/2000/svg" xmlns:xlink="http://www.w3.org/1999/xlink" x="0px" y="0px"
	 width="512px" height="512px" viewBox="0 0 512 512" enable-background="new 0 0 512 512" xml:space="preserve">
<g>
</g>
<g>
	<path d="M353,157.249c-54.754-51.482-140.69-50.68-194.293,2.729c-27.274,27.36-40.78,62.771-40.847,98.596H32
		c-0.027-57.541,22.117-115.449,66.013-159.315c87.079-87.022,227.441-87.84,315.691-2.715l60.375-60.588v181.355H292.711
		L353,157.249z"/>
	<path d="M159.005,355.689c54.754,51.48,140.688,50.68,194.288-2.729c27.275-27.358,40.781-62.774,40.852-98.592H480
		c0.031,57.526-22.109,115.437-66.006,159.306c-87.079,87.021-227.434,87.841-315.699,2.717l-60.367,60.586V295.62h181.365
		L159.005,355.689z"/>
</g>
</svg>
